<svg xmlns="http://www.w3.org/2000/svg" viewBox="0 0 142.76 27.19">
  <defs>
    <style>
      .cls-1 {
        fill: #f15a29;
      }

      .cls-2 {
        fill: none;
      }
    </style>
  </defs>
  <title>logo-ruigehond</title>
  <g id="Content">
    <g>
      <path class="cls-1" d="M4.23,7H7.76L8,8.54a8.61,8.61,0,0,1,.67-.77,4.82,4.82,0,0,1,.72-.58,3.28,3.28,0,0,1,.79-.35,3,3,0,0,1,.87-.12,3,3,0,0,1,.7.07,3.19,3.19,0,0,1,.62.19l-.33,3.93a3.13,3.13,0,0,0-.57-.18A2.25,2.25,0,0,0,9.79,11a2.75,2.75,0,0,0-.54.41,4.64,4.64,0,0,0-.54.6v8.56H4.23Z"/>
      <path class="cls-1" d="M27.33,20.55H23.81l-.22-1.17a5.73,5.73,0,0,1-1.7,1.08,5.61,5.61,0,0,1-2.13.39,6.25,6.25,0,0,1-2.1-.35A4.73,4.73,0,0,1,16,19.43a5.09,5.09,0,0,1-1.14-1.81,7.27,7.27,0,0,1-.41-2.54V7H18.9v7.53a4,4,0,0,0,.17,1.24,2.4,2.4,0,0,0,.44.81,1.63,1.63,0,0,0,.65.44,2.37,2.37,0,0,0,.76.12,2.23,2.23,0,0,0,1-.23,3.13,3.13,0,0,0,.91-.68V7h4.49Z"/>
      <path class="cls-1" d="M33.06.1a2.87,2.87,0,0,1,1.1.21A2.55,2.55,0,0,1,35,.87a2.68,2.68,0,0,1,.79,1.92,2.74,2.74,0,0,1-.21,1.08,2.52,2.52,0,0,1-.58.85,2.41,2.41,0,0,1-.87.56,2.87,2.87,0,0,1-1.1.2A2.82,2.82,0,0,1,32,5.28a2.45,2.45,0,0,1-.88-.56,2.67,2.67,0,0,1-.58-.85,2.74,2.74,0,0,1-.21-1.08,2.67,2.67,0,0,1,.21-1.06,2.83,2.83,0,0,1,.58-.86A2.6,2.6,0,0,1,32,.31,2.82,2.82,0,0,1,33.06.1ZM30.83,7h4.48V20.55H30.83Z"/>
      <path class="cls-1" d="M50.34,10.43l-.27,0-.25,0a4.9,4.9,0,0,1,.13.55,2.65,2.65,0,0,1,.06.58,4.74,4.74,0,0,1-.44,2.05,4.38,4.38,0,0,1-1.21,1.55,5.37,5.37,0,0,1-1.83,1,8.1,8.1,0,0,1-2.31.38h-.17l-.17,0a1.25,1.25,0,0,0-.23.38,1.23,1.23,0,0,0-.08.44.77.77,0,0,0,.07.34.63.63,0,0,0,.21.28,1,1,0,0,0,.35.18,1.33,1.33,0,0,0,.47.07h1.2a8.37,8.37,0,0,1,2.28.28,4.81,4.81,0,0,1,1.72.81A3.51,3.51,0,0,1,51,20.55a4,4,0,0,1,.37,1.77,4.24,4.24,0,0,1-.48,2,4.3,4.3,0,0,1-1.39,1.53,6.65,6.65,0,0,1-2.22,1,11.77,11.77,0,0,1-3,.34,11.4,11.4,0,0,1-2.79-.31,6.51,6.51,0,0,1-2.1-.87A4,4,0,0,1,38,24.59a3.68,3.68,0,0,1-.46-1.85,4.07,4.07,0,0,1,.19-1.27,3.91,3.91,0,0,1,.55-1.1,4.48,4.48,0,0,1,.87-.87,4.73,4.73,0,0,1,1.16-.61,1.7,1.7,0,0,1-.54-.68,2.2,2.2,0,0,1-.19-.9,2.34,2.34,0,0,1,.2-.95,3.12,3.12,0,0,1,.54-.85A4.34,4.34,0,0,1,38.82,14a4.47,4.47,0,0,1-.56-2.27A4.49,4.49,0,0,1,40,8a5.65,5.65,0,0,1,1.91-1,8.11,8.11,0,0,1,2.36-.33,8.46,8.46,0,0,1,1.15.07A6.72,6.72,0,0,1,46.46,7h4.86v3.41Zm-6.7,10.88a2.7,2.7,0,0,0-1.44.32,1,1,0,0,0-.5.9,1.07,1.07,0,0,0,.18.61,1.73,1.73,0,0,0,.53.46,2.91,2.91,0,0,0,.85.3,5.76,5.76,0,0,0,1.16.1,5,5,0,0,0,1.15-.11,3.09,3.09,0,0,0,.86-.3,1.53,1.53,0,0,0,.53-.47,1.12,1.12,0,0,0,.19-.6,1,1,0,0,0-.48-.89,2.38,2.38,0,0,0-1.32-.32Zm.51-11.43a2,2,0,0,0-.68.12,1.77,1.77,0,0,0-.58.34,1.57,1.57,0,0,0-.39.54,1.81,1.81,0,0,0-.14.72,1.9,1.9,0,0,0,.14.73,1.59,1.59,0,0,0,.4.55,1.77,1.77,0,0,0,.58.34,2,2,0,0,0,.7.12,2,2,0,0,0,.68-.12,1.68,1.68,0,0,0,.56-.34A1.64,1.64,0,0,0,46,11.62a1.68,1.68,0,0,0-.55-1.27,1.8,1.8,0,0,0-.58-.35A1.92,1.92,0,0,0,44.15,9.88Z"/>
      <path class="cls-1" d="M65.59,19.57a10.36,10.36,0,0,1-2.47.95,11.6,11.6,0,0,1-2.82.33,9.37,9.37,0,0,1-3.11-.47A6.26,6.26,0,0,1,54.87,19a5.72,5.72,0,0,1-1.45-2.19,7.88,7.88,0,0,1-.5-2.92,8.65,8.65,0,0,1,.47-3,6.57,6.57,0,0,1,1.34-2.27,5.78,5.78,0,0,1,2.08-1.45,7,7,0,0,1,2.72-.51A6.54,6.54,0,0,1,62,7.15a4.83,4.83,0,0,1,1.86,1.27A5.68,5.68,0,0,1,65,10.5a9.23,9.23,0,0,1,.4,2.86c0,.25,0,.49,0,.73a6.58,6.58,0,0,1-.07.74h-8v0A3.61,3.61,0,0,0,57.72,16a2.42,2.42,0,0,0,.71.81,3.37,3.37,0,0,0,1,.48,5.37,5.37,0,0,0,1.4.17,7.11,7.11,0,0,0,2-.29,7.26,7.26,0,0,0,1.84-.84Zm-4.34-7.46a3.53,3.53,0,0,0-.15-1,2,2,0,0,0-.37-.71,1.48,1.48,0,0,0-.56-.43,1.65,1.65,0,0,0-.75-.16,1.81,1.81,0,0,0-.74.15,1.76,1.76,0,0,0-.59.43,2.77,2.77,0,0,0-.45.72,4.26,4.26,0,0,0-.28,1Z"/>
      <path class="cls-1" d="M75.89.89,80.37.43V7.62A4.89,4.89,0,0,1,81.77,7a5.93,5.93,0,0,1,1.68-.23,5.85,5.85,0,0,1,2.07.36,4.57,4.57,0,0,1,1.69,1.06,4.87,4.87,0,0,1,1.14,1.8,7,7,0,0,1,.42,2.54v8.07H84.28V13a4,4,0,0,0-.16-1.24,2.2,2.2,0,0,0-.45-.8,1.54,1.54,0,0,0-.64-.44,2.34,2.34,0,0,0-.74-.12,2.37,2.37,0,0,0-1,.23,3.12,3.12,0,0,0-.91.65v9.27H75.89Z"/>
      <path class="cls-1" d="M99.11,6.72a8.19,8.19,0,0,1,2.82.48,6.81,6.81,0,0,1,2.29,1.38,6.39,6.39,0,0,1,1.56,2.18,7.07,7.07,0,0,1,.57,2.89,7.67,7.67,0,0,1-.57,3A6.44,6.44,0,0,1,104.22,19a6.77,6.77,0,0,1-2.36,1.42,9,9,0,0,1-3,.48A8.32,8.32,0,0,1,96,20.37,6.9,6.9,0,0,1,93.72,19a6.14,6.14,0,0,1-1.55-2.18,7,7,0,0,1-.57-2.89,7.67,7.67,0,0,1,.57-3,6.29,6.29,0,0,1,1.57-2.26,6.78,6.78,0,0,1,2.38-1.41A8.72,8.72,0,0,1,99.11,6.72Zm-.19,3.77a2.55,2.55,0,0,0-1.06.22,2.46,2.46,0,0,0-.88.63,3,3,0,0,0-.61,1,3.94,3.94,0,0,0-.22,1.37,4.07,4.07,0,0,0,.23,1.46,2.88,2.88,0,0,0,.62,1,2.49,2.49,0,0,0,.91.63,2.92,2.92,0,0,0,1.11.21,2.6,2.6,0,0,0,1.07-.22,2.46,2.46,0,0,0,.88-.63,2.87,2.87,0,0,0,.6-1,3.84,3.84,0,0,0,.22-1.36,4.27,4.27,0,0,0-.22-1.46,2.92,2.92,0,0,0-.6-1.05,2.52,2.52,0,0,0-.92-.63A3,3,0,0,0,98.92,10.49Z"/>
      <path class="cls-1" d="M109.33,7h3.53l.21,1.16a5.49,5.49,0,0,1,1.67-1.07,5.61,5.61,0,0,1,2.15-.39,5.89,5.89,0,0,1,2.07.36,4.57,4.57,0,0,1,1.69,1.06,4.87,4.87,0,0,1,1.14,1.8,7,7,0,0,1,.42,2.54v8.07h-4.49V13a4,4,0,0,0-.16-1.24,2.2,2.2,0,0,0-.45-.8,1.54,1.54,0,0,0-.64-.44,2.34,2.34,0,0,0-.74-.12,2.37,2.37,0,0,0-1,.23,3.12,3.12,0,0,0-.91.65v9.27h-4.48Z"/>
      <path class="cls-1" d="M135,20.55l-.21-1.2A5.64,5.64,0,0,1,133,20.48a6.18,6.18,0,0,1-2.17.37,5.77,5.77,0,0,1-2.33-.47A5.32,5.32,0,0,1,126.65,19a6.25,6.25,0,0,1-1.18-2.09,8.07,8.07,0,0,1-.43-2.71,7.84,7.84,0,0,1,.58-3.09,6.22,6.22,0,0,1,1.68-2.36A7.53,7.53,0,0,1,130,7.27a11.67,11.67,0,0,1,3.65-.55h.41V.89l4.48-.46V20.55Zm-1-10h-.7a5.13,5.13,0,0,0-1.66.25,3.22,3.22,0,0,0-1.18.7,2.88,2.88,0,0,0-.7,1.12,4.26,4.26,0,0,0-.23,1.48,4.7,4.7,0,0,0,.16,1.29,2.72,2.72,0,0,0,.48,1,2,2,0,0,0,.75.62,2.22,2.22,0,0,0,1,.22,2.72,2.72,0,0,0,1.12-.24,3.06,3.06,0,0,0,1-.66Z"/>
    </g>
  </g>
  <g id="rect">
    <rect class="cls-2" width="142.76" height="27.19"/>
  </g>
</svg>
