<svg xmlns="http://www.w3.org/2000/svg" viewBox="0 0 142.76 27.19">
  <defs>
    <style>
      .cls-1 {
        fill: #f15a29;
      }

      .cls-2 {
        fill: none;
      }
    </style>
  </defs>
  <title>logo-ruigehond-leiband</title>
  <g id="Content">
    <g>
      <path class="cls-1" d="M34.45,9.57A41.81,41.81,0,0,0,19.3,12c-4,1.34-8.23,3.08-12.5,3.39-.93.06-4,.32-4.61-.45-1-1.37,5.92-2.1,6.67-2.18,6.12-.59,12.27-.93,18.39-1.39,5.91-.44,11.83-.84,17.75-.74s11.94.72,17.92.67c11.47-.09,23.61-3.76,34.81.09,2.84,1,5.43,2.57,8.32,3.41a22.51,22.51,0,0,0,7.89.59c3.47-.24,6.67-.92,10.11-.07,2.73.68,5.15,1.59,8,1.52a.89.89,0,0,0,0-1.78c-3.24.08-6-1.27-9.15-1.82-2.78-.49-5.52.1-8.3.33a21.74,21.74,0,0,1-10.73-1.49A53.06,53.06,0,0,0,95.78,9c-12.38-3.07-25.59.95-38.17.45C50.89,9.17,44.22,8.7,37.49,9S23.82,9.87,17,10.38c-3.37.26-6.76.41-10.11.83-1.62.2-4.9.31-6.13,1.64-1.71,1.84-.24,3.62,1.6,4,3.7.73,7.17.1,10.75-.95,7.23-2.11,13.64-4.78,21.34-4.54,1.14,0,1.14-1.74,0-1.78Z"/>
      <g>
        <path class="cls-1" d="M130.69,14.81c0,.43,0,.86,0,1.29a8.41,8.41,0,0,0,.25,1.31c.26,1.11,2,.64,1.72-.47-.06-.25-.11-.5-.17-.75a.85.85,0,0,0,0-.17c.08.25,0,.13,0,0,0-.42,0-.84,0-1.25-.06-1.14-1.84-1.15-1.78,0Z"/>
        <path class="cls-1" d="M131.7,16.38a16.87,16.87,0,0,0,6.33.28c1.13-.15.65-1.86-.48-1.71a14.5,14.5,0,0,1-5.37-.28c-1.12-.26-1.59,1.45-.48,1.71Z"/>
        <path class="cls-1" d="M132.13,17.14a15.87,15.87,0,0,0,6.58-.19l-1.09-.62c.49,1.56,1.66,3.66,3.67,3s1.57-3.1.89-4.58c-.48-1-2-.14-1.54.9.86,1.24.57,1.71-.86,1.41a6.41,6.41,0,0,1-.45-1.17.9.9,0,0,0-1.09-.62,13.57,13.57,0,0,1-5.64.18c-1.12-.19-1.6,1.52-.47,1.72Z"/>
        <path class="cls-1" d="M140.72,14.19l-1.83.38a.88.88,0,0,0-.62,1.09.9.9,0,0,0,1.09.62l1.84-.38a.89.89,0,0,0,.62-1.09.91.91,0,0,0-1.1-.62Z"/>
        <path class="cls-1" d="M135.67,14.86l.19,1a.89.89,0,0,0,1.72-.47l-.19-1a.9.9,0,0,0-1.1-.62.92.92,0,0,0-.62,1.1Z"/>
      </g>
    </g>
  </g>
  <g id="rect">
    <rect class="cls-2" width="142.76" height="27.19"/>
  </g>
</svg>
