<svg xmlns="http://www.w3.org/2000/svg" viewBox="0 0 142.76 27.19">
  <defs>
    <style>
      .cls-1 {
        fill: #fff;
      }

      .cls-2 {
        fill: #754c29;
      }

      .cls-3 {
        fill: none;
      }
    </style>
    <filter id="blur" x="0" y="0">
      <feGaussianBlur stdDeviation=".4" />
    </filter>
  </defs>
  <title>logo-ruigehond-present-online</title>
  <g id="Glow" filter="url(#blur)">
    <g>
      <path class="cls-1" d="M36.3,10.36c0,1.55-.95,3-3.39,3H31.45v3.8h1.36c.17,0,.25.08.25.23v.38c0,.17-.08.26-.25.26H29.42c-.17,0-.25-.09-.25-.26v-.38c0-.15.08-.23.25-.23h.91V8.42h-.91a.22.22,0,0,1-.25-.25V7.79a.22.22,0,0,1,.25-.24h3.66C35.08,7.54,36.3,8.35,36.3,10.36ZM31.45,8.41v4.07h1.42c1.43,0,2.28-.71,2.28-2.07a1.81,1.81,0,0,0-2.1-2Z"/>
      <path class="cls-1" d="M40.41,18H37.33c-.18,0-.25-.09-.25-.26v-.38c0-.15.07-.23.25-.23h.83V11.34h-.83c-.18,0-.25-.09-.25-.26v-.37c0-.16.07-.24.25-.24h1.36c.21,0,.32.07.32.31l0,1.55c.35-1.34,1.18-2,2.08-2a.93.93,0,0,1,1,1,.73.73,0,0,1-.76.78.61.61,0,0,1-.66-.65.58.58,0,0,1,0-.21c-.87.26-1.5,1.59-1.5,3.18v2.73h1.16c.17,0,.25.08.25.23v.38C40.66,17.89,40.58,18,40.41,18Z"/>
      <path class="cls-1" d="M45.2,18.13c-1.46,0-2.77-1.05-2.77-3.85,0-2.62,1.2-4,3-4s2.54,1.49,2.54,3.48c0,.5-.13.63-.45.63H43.56c0,1.67.63,2.79,1.74,2.79a1.54,1.54,0,0,0,1.61-1.48c.06-.21.08-.33.32-.33h.32c.17,0,.27.07.26.29A2.42,2.42,0,0,1,45.2,18.13Zm-1.61-4.54h3.22c-.06-1.85-.69-2.42-1.47-2.42S43.76,11.87,43.59,13.59Z"/>
      <path class="cls-1" d="M51.68,17.26c.69,0,1.3-.32,1.3-1.09s-.67-1.15-1.82-1.54-2-1.07-2-2.36a2,2,0,0,1,2.2-2,1.78,1.78,0,0,1,1.76,1l.07-.64c0-.2.07-.24.23-.24h.24c.18,0,.24.08.24.25v2.21c0,.18-.08.3-.26.3h-.35c-.19,0-.26-.1-.26-.31a1.6,1.6,0,0,0-1.57-1.78c-.77,0-1.26.38-1.26,1.06s.53,1.14,1.71,1.53,2.12.9,2.12,2.36a2,2,0,0,1-2.26,2A2.1,2.1,0,0,1,49.83,17l-.07.76c0,.14-.08.21-.25.21h-.28c-.14,0-.2-.07-.2-.24V15.26c0-.2.09-.28.27-.28h.36c.17,0,.26.07.27.28C50,16.55,50.6,17.26,51.68,17.26Z"/>
      <path class="cls-1" d="M57.91,18.13c-1.46,0-2.77-1.05-2.77-3.85,0-2.62,1.2-4,3-4s2.54,1.49,2.54,3.48c0,.5-.13.63-.45.63H56.27c0,1.67.63,2.79,1.74,2.79.83,0,1.41-.41,1.61-1.48.06-.21.08-.33.32-.33h.33c.16,0,.26.07.25.29A2.41,2.41,0,0,1,57.91,18.13ZM56.3,13.59h3.22c-.05-1.85-.68-2.42-1.47-2.42S56.47,11.87,56.3,13.59Z"/>
      <path class="cls-1" d="M68.78,18H66.16c-.17,0-.25-.09-.25-.26v-.38c0-.15.08-.23.25-.23h.74V13.17c0-1.51-.46-2-1.3-2-1,0-1.74,1-1.74,2.41v3.49h.74c.17,0,.26.08.26.23v.38a.23.23,0,0,1-.26.26H61.93c-.17,0-.25-.09-.25-.26v-.38c0-.15.08-.23.25-.23h.81V11.34h-.81c-.17,0-.25-.09-.25-.26v-.37c0-.16.08-.24.25-.24h1.41c.17,0,.28.07.28.29L63.68,12a2.24,2.24,0,0,1,2.2-1.67c1.41,0,2.13.9,2.13,2.71v4.09h.77c.18,0,.26.08.26.23v.38A.23.23,0,0,1,68.78,18Z"/>
      <path class="cls-1" d="M73.09,15.08c0-.23.07-.28.22-.28h.35c.19,0,.24.09.25.29A5.13,5.13,0,0,1,73.7,17a1.57,1.57,0,0,1-1.61,1.15c-1.2,0-1.65-.87-1.65-2.27V11.34h-.7c-.17,0-.25-.09-.25-.26v-.37c0-.16.08-.24.25-.24h.72l.26-2c0-.14.07-.22.24-.22h.34a.19.19,0,0,1,.21.22v2h1.72c.17,0,.25.07.25.24v.37c0,.17-.07.26-.27.26h-1.7v4.59c0,.88.18,1.32.71,1.32s.69-.34.77-.84A10.91,10.91,0,0,0,73.09,15.08Z"/>
      <path class="cls-1" d="M80,10.31c1.6,0,2.87,1.07,2.87,3.86s-1.32,4-2.91,4S77,17,77,14.17,78.44,10.31,80,10.31Zm0,6.91c1.09,0,1.71-1,1.71-3s-.68-3-1.71-3-1.78,1-1.78,3S78.87,17.22,80,17.22Z"/>
      <path class="cls-1" d="M90.88,18H88.27a.23.23,0,0,1-.26-.26v-.38c0-.15.09-.23.26-.23H89V13.17c0-1.51-.46-2-1.31-2-1,0-1.73,1-1.73,2.41v3.49h.74c.17,0,.25.08.25.23v.38c0,.17-.08.26-.25.26H84a.23.23,0,0,1-.25-.26v-.38c0-.15.09-.23.25-.23h.82V11.34H84a.23.23,0,0,1-.25-.26v-.37a.22.22,0,0,1,.25-.24h1.42c.17,0,.28.07.28.29L85.79,12A2.23,2.23,0,0,1,88,10.31c1.42,0,2.13.9,2.13,2.71v4.09h.77c.19,0,.27.08.27.23v.38C91.15,17.89,91.07,18,90.88,18Z"/>
      <path class="cls-1" d="M92,7.29H93.7c.16,0,.23.08.23.28v9.54h.83c.17,0,.25.08.25.23v.38c0,.17-.08.26-.25.26H92a.23.23,0,0,1-.26-.26v-.38c0-.15.08-.23.26-.23h.83V8.16H92a.23.23,0,0,1-.26-.26V7.53C91.75,7.37,91.83,7.29,92,7.29Z"/>
      <path class="cls-1" d="M96.12,10.47h1.64a.23.23,0,0,1,.26.26v6.38h.81c.17,0,.26.08.26.23v.38a.23.23,0,0,1-.26.26H96.12a.23.23,0,0,1-.26-.26v-.38c0-.15.09-.23.26-.23h.81V11.34h-.81a.23.23,0,0,1-.26-.26v-.37C95.86,10.55,96,10.47,96.12,10.47Zm1.29-1.39a.84.84,0,0,1,0-1.68.82.82,0,0,1,.86.83A.84.84,0,0,1,97.41,9.08Z"/>
      <path class="cls-1" d="M107.11,18h-2.62c-.17,0-.25-.09-.25-.26v-.38c0-.15.08-.23.25-.23h.74V13.17c0-1.51-.46-2-1.3-2-1,0-1.74,1-1.74,2.41v3.49h.75c.16,0,.25.08.25.23v.38a.23.23,0,0,1-.25.26h-2.68c-.17,0-.25-.09-.25-.26v-.38c0-.15.08-.23.25-.23h.81V11.34h-.81c-.17,0-.25-.09-.25-.26v-.37c0-.16.08-.24.25-.24h1.42c.16,0,.28.07.28.29L102,12a2.24,2.24,0,0,1,2.2-1.67c1.42,0,2.13.9,2.13,2.71v4.09h.77c.18,0,.27.08.27.23v.38A.24.24,0,0,1,107.11,18Z"/>
      <path class="cls-1" d="M110.89,18.13c-1.46,0-2.78-1.05-2.78-3.85,0-2.62,1.21-4,3-4s2.54,1.49,2.54,3.48c0,.5-.13.63-.45.63h-3.91c0,1.67.63,2.79,1.74,2.79a1.54,1.54,0,0,0,1.61-1.48c.05-.21.08-.33.32-.33h.32c.17,0,.27.07.25.29A2.4,2.4,0,0,1,110.89,18.13Zm-1.61-4.54h3.22c-.06-1.85-.69-2.42-1.47-2.42S109.45,11.87,109.28,13.59Z"/>
    </g>
  </g>
  <g id="Content">
    <g>
      <path class="cls-2" d="M36.3,10.36c0,1.55-.95,3-3.39,3H31.45v3.8h1.36c.17,0,.25.08.25.23v.38c0,.17-.08.26-.25.26H29.42c-.17,0-.25-.09-.25-.26v-.38c0-.15.08-.23.25-.23h.91V8.42h-.91a.22.22,0,0,1-.25-.25V7.79a.22.22,0,0,1,.25-.24h3.66C35.08,7.54,36.3,8.35,36.3,10.36ZM31.45,8.41v4.07h1.42c1.43,0,2.28-.71,2.28-2.07a1.81,1.81,0,0,0-2.1-2Z"/>
      <path class="cls-2" d="M40.41,18H37.33c-.18,0-.25-.09-.25-.26v-.38c0-.15.07-.23.25-.23h.83V11.34h-.83c-.18,0-.25-.09-.25-.26v-.37c0-.16.07-.24.25-.24h1.36c.21,0,.32.07.32.31l0,1.55c.35-1.34,1.18-2,2.08-2a.93.93,0,0,1,1,1,.73.73,0,0,1-.76.78.61.61,0,0,1-.66-.65.58.58,0,0,1,0-.21c-.87.26-1.5,1.59-1.5,3.18v2.73h1.16c.17,0,.25.08.25.23v.38C40.66,17.89,40.58,18,40.41,18Z"/>
      <path class="cls-2" d="M45.2,18.13c-1.46,0-2.77-1.05-2.77-3.85,0-2.62,1.2-4,3-4s2.54,1.49,2.54,3.48c0,.5-.13.63-.45.63H43.56c0,1.67.63,2.79,1.74,2.79a1.54,1.54,0,0,0,1.61-1.48c.06-.21.08-.33.32-.33h.32c.17,0,.27.07.26.29A2.42,2.42,0,0,1,45.2,18.13Zm-1.61-4.54h3.22c-.06-1.85-.69-2.42-1.47-2.42S43.76,11.87,43.59,13.59Z"/>
      <path class="cls-2" d="M51.68,17.26c.69,0,1.3-.32,1.3-1.09s-.67-1.15-1.82-1.54-2-1.07-2-2.36a2,2,0,0,1,2.2-2,1.78,1.78,0,0,1,1.76,1l.07-.64c0-.2.07-.24.23-.24h.24c.18,0,.24.08.24.25v2.21c0,.18-.08.3-.26.3h-.35c-.19,0-.26-.1-.26-.31a1.6,1.6,0,0,0-1.57-1.78c-.77,0-1.26.38-1.26,1.06s.53,1.14,1.71,1.53,2.12.9,2.12,2.36a2,2,0,0,1-2.26,2A2.1,2.1,0,0,1,49.83,17l-.07.76c0,.14-.08.21-.25.21h-.28c-.14,0-.2-.07-.2-.24V15.26c0-.2.09-.28.27-.28h.36c.17,0,.26.07.27.28C50,16.55,50.6,17.26,51.68,17.26Z"/>
      <path class="cls-2" d="M57.91,18.13c-1.46,0-2.77-1.05-2.77-3.85,0-2.62,1.2-4,3-4s2.54,1.49,2.54,3.48c0,.5-.13.63-.45.63H56.27c0,1.67.63,2.79,1.74,2.79.83,0,1.41-.41,1.61-1.48.06-.21.08-.33.32-.33h.33c.16,0,.26.07.25.29A2.41,2.41,0,0,1,57.91,18.13ZM56.3,13.59h3.22c-.05-1.85-.68-2.42-1.47-2.42S56.47,11.87,56.3,13.59Z"/>
      <path class="cls-2" d="M68.78,18H66.16c-.17,0-.25-.09-.25-.26v-.38c0-.15.08-.23.25-.23h.74V13.17c0-1.51-.46-2-1.3-2-1,0-1.74,1-1.74,2.41v3.49h.74c.17,0,.26.08.26.23v.38a.23.23,0,0,1-.26.26H61.93c-.17,0-.25-.09-.25-.26v-.38c0-.15.08-.23.25-.23h.81V11.34h-.81c-.17,0-.25-.09-.25-.26v-.37c0-.16.08-.24.25-.24h1.41c.17,0,.28.07.28.29L63.68,12a2.24,2.24,0,0,1,2.2-1.67c1.41,0,2.13.9,2.13,2.71v4.09h.77c.18,0,.26.08.26.23v.38A.23.23,0,0,1,68.78,18Z"/>
      <path class="cls-2" d="M73.09,15.08c0-.23.07-.28.22-.28h.35c.19,0,.24.09.25.29A5.13,5.13,0,0,1,73.7,17a1.57,1.57,0,0,1-1.61,1.15c-1.2,0-1.65-.87-1.65-2.27V11.34h-.7c-.17,0-.25-.09-.25-.26v-.37c0-.16.08-.24.25-.24h.72l.26-2c0-.14.07-.22.24-.22h.34a.19.19,0,0,1,.21.22v2h1.72c.17,0,.25.07.25.24v.37c0,.17-.07.26-.27.26h-1.7v4.59c0,.88.18,1.32.71,1.32s.69-.34.77-.84A10.91,10.91,0,0,0,73.09,15.08Z"/>
      <path class="cls-2" d="M80,10.31c1.6,0,2.87,1.07,2.87,3.86s-1.32,4-2.91,4S77,17,77,14.17,78.44,10.31,80,10.31Zm0,6.91c1.09,0,1.71-1,1.71-3s-.68-3-1.71-3-1.78,1-1.78,3S78.87,17.22,80,17.22Z"/>
      <path class="cls-2" d="M90.88,18H88.27a.23.23,0,0,1-.26-.26v-.38c0-.15.09-.23.26-.23H89V13.17c0-1.51-.46-2-1.31-2-1,0-1.73,1-1.73,2.41v3.49h.74c.17,0,.25.08.25.23v.38c0,.17-.08.26-.25.26H84a.23.23,0,0,1-.25-.26v-.38c0-.15.09-.23.25-.23h.82V11.34H84a.23.23,0,0,1-.25-.26v-.37a.22.22,0,0,1,.25-.24h1.42c.17,0,.28.07.28.29L85.79,12A2.23,2.23,0,0,1,88,10.31c1.42,0,2.13.9,2.13,2.71v4.09h.77c.19,0,.27.08.27.23v.38C91.15,17.89,91.07,18,90.88,18Z"/>
      <path class="cls-2" d="M92,7.29H93.7c.16,0,.23.08.23.28v9.54h.83c.17,0,.25.08.25.23v.38c0,.17-.08.26-.25.26H92a.23.23,0,0,1-.26-.26v-.38c0-.15.08-.23.26-.23h.83V8.16H92a.23.23,0,0,1-.26-.26V7.53C91.75,7.37,91.83,7.29,92,7.29Z"/>
      <path class="cls-2" d="M96.12,10.47h1.64a.23.23,0,0,1,.26.26v6.38h.81c.17,0,.26.08.26.23v.38a.23.23,0,0,1-.26.26H96.12a.23.23,0,0,1-.26-.26v-.38c0-.15.09-.23.26-.23h.81V11.34h-.81a.23.23,0,0,1-.26-.26v-.37C95.86,10.55,96,10.47,96.12,10.47Zm1.29-1.39a.84.84,0,0,1,0-1.68.82.82,0,0,1,.86.83A.84.84,0,0,1,97.41,9.08Z"/>
      <path class="cls-2" d="M107.11,18h-2.62c-.17,0-.25-.09-.25-.26v-.38c0-.15.08-.23.25-.23h.74V13.17c0-1.51-.46-2-1.3-2-1,0-1.74,1-1.74,2.41v3.49h.75c.16,0,.25.08.25.23v.38a.23.23,0,0,1-.25.26h-2.68c-.17,0-.25-.09-.25-.26v-.38c0-.15.08-.23.25-.23h.81V11.34h-.81c-.17,0-.25-.09-.25-.26v-.37c0-.16.08-.24.25-.24h1.42c.16,0,.28.07.28.29L102,12a2.24,2.24,0,0,1,2.2-1.67c1.42,0,2.13.9,2.13,2.71v4.09h.77c.18,0,.27.08.27.23v.38A.24.24,0,0,1,107.11,18Z"/>
      <path class="cls-2" d="M110.89,18.13c-1.46,0-2.78-1.05-2.78-3.85,0-2.62,1.21-4,3-4s2.54,1.49,2.54,3.48c0,.5-.13.63-.45.63h-3.91c0,1.67.63,2.79,1.74,2.79a1.54,1.54,0,0,0,1.61-1.48c.05-.21.08-.33.32-.33h.32c.17,0,.27.07.25.29A2.4,2.4,0,0,1,110.89,18.13Zm-1.61-4.54h3.22c-.06-1.85-.69-2.42-1.47-2.42S109.45,11.87,109.28,13.59Z"/>
    </g>
  </g>
  <g id="rect">
    <rect class="cls-3" width="142.76" height="27.19"/>
  </g>
</svg>
